{
	"asset":{
		"generator":"Khronos glTF Blender I/O v4.2.60",
		"version":"2.0"
	},
	"extensionsUsed":[
		"KHR_materials_emissive_strength"
	],
	"scene":0,
	"scenes":[
		{
			"name":"Scene",
			"nodes":[
				0,
				11,
				12
			]
		}
	],
	"nodes":[
		{
			"mesh":0,
			"name":"Sphere",
			"rotation":[
				0.09707031399011612,
				-0.014091109856963158,
				-0.14296551048755646,
				0.9848552346229553
			],
			"scale":[
				2.0960183143615723,
				2.096020460128784,
				2.0960185527801514
			],
			"translation":[
				-0.026184389367699623,
				1.1656367778778076,
				-6.633354187011719
			]
		},
		{
			"mesh":1,
			"name":"Cube",
			"rotation":[
				0,
				0,
				-0.7071068286895752,
				0.7071068286895752
			],
			"scale":[
				-0.1594909280538559,
				-0.1594909280538559,
				-0.8714244365692139
			],
			"translation":[
				-0.08829867094755173,
				0,
				2.3003196716308594
			]
		},
		{
			"mesh":2,
			"name":"Cube.000",
			"rotation":[
				0,
				0.5123016238212585,
				0,
				0.8588055968284607
			],
			"scale":[
				-0.9571020007133484,
				-0.5380771160125732,
				-0.5380771160125732
			],
			"translation":[
				12.567445755004883,
				-0.027569087222218513,
				1.281267762184143
			]
		},
		{
			"mesh":3,
			"name":"Cube.003",
			"rotation":[
				-0.27059805393218994,
				0.27059805393218994,
				-0.6532815098762512,
				0.6532815098762512
			],
			"scale":[
				-0.13027122616767883,
				-0.13027119636535645,
				-0.7117741703987122
			],
			"translation":[
				0.9855004549026489,
				0,
				1.9925267696380615
			]
		},
		{
			"mesh":4,
			"name":"Cube.004",
			"rotation":[
				0,
				0,
				0.7071068286895752,
				0.7071068286895752
			],
			"scale":[
				0.2995150685310364,
				5.519569396972656,
				0.2995150685310364
			],
			"translation":[
				6.856927871704102,
				-0.03861186280846596,
				-0.003114508930593729
			]
		},
		{
			"mesh":5,
			"name":"Cube.005",
			"rotation":[
				0.27059808373451233,
				-0.27059808373451233,
				-0.6532815098762512,
				0.6532814502716064
			],
			"scale":[
				-0.13027122616767883,
				-0.13027121126651764,
				-0.7117741107940674
			],
			"translation":[
				-1.1101645231246948,
				0,
				1.9988254308700562
			]
		},
		{
			"mesh":6,
			"name":"Cube.006",
			"rotation":[
				0,
				0,
				0.7071068286895752,
				0.7071068286895752
			],
			"scale":[
				0.10501755028963089,
				0.19458897411823273,
				0.395687997341156
			],
			"translation":[
				0.0013292529620230198,
				0.025426963344216347,
				-1.6655023097991943
			]
		},
		{
			"mesh":7,
			"name":"Cube.007",
			"rotation":[
				0,
				-0.9999954104423523,
				0,
				0.0030566633213311434
			],
			"scale":[
				-0.3547990620136261,
				-0.19946596026420593,
				-0.19946599006652832
			],
			"translation":[
				-0.011156290769577026,
				0.03128993511199951,
				-2.1856837272644043
			]
		},
		{
			"mesh":8,
			"name":"Cylinder",
			"scale":[
				2.1307387351989746,
				0.1775292605161667,
				2.1307387351989746
			],
			"translation":[
				-0.16381825506687164,
				0,
				2.010455369949341
			]
		},
		{
			"mesh":9,
			"name":"Torus.021",
			"scale":[
				1.404929518699646,
				1.404929518699646,
				1.404929518699646
			]
		},
		{
			"mesh":10,
			"name":"Torus.022",
			"rotation":[
				0.16155245900154114,
				-0.16155248880386353,
				-0.6884045004844666,
				0.6884045600891113
			],
			"scale":[
				0.5808882117271423,
				0.5808881521224976,
				0.5808881521224976
			],
			"translation":[
				10.457418441772461,
				-0.03449605405330658,
				0.23048721253871918
			]
		},
		{
			"children":[
				1,
				2,
				3,
				4,
				5,
				6,
				7,
				8,
				9,
				10
			],
			"mesh":11,
			"name":"Torus.020",
			"rotation":[
				-0.5,
				0.5,
				-0.4999999701976776,
				0.5
			],
			"scale":[
				0.09675132483243942,
				0.09675132483243942,
				0.09675132483243942
			],
			"translation":[
				-0.05552566424012184,
				1.882152795791626,
				-0.30150264501571655
			]
		},
		{
			"mesh":12,
			"name":"Curve",
			"rotation":[
				0,
				-0.7071068286895752,
				-0.7071068286895752,
				0
			],
			"scale":[
				-3.2424023151397705,
				-0.4188764691352844,
				-3.2424023151397705
			],
			"translation":[
				-1.8588528633117676,
				3.3040411472320557,
				0
			]
		}
	],
	"animations":[
		{
			"channels":[
				{
					"sampler":0,
					"target":{
						"node":0,
						"path":"rotation"
					}
				}
			],
			"name":"SphereAction",
			"samplers":[
				{
					"input":50,
					"interpolation":"LINEAR",
					"output":51
				}
			]
		},
		{
			"channels":[
				{
					"sampler":0,
					"target":{
						"node":11,
						"path":"rotation"
					}
				}
			],
			"name":"Torus.020Action.001",
			"samplers":[
				{
					"input":50,
					"interpolation":"LINEAR",
					"output":52
				}
			]
		},
		{
			"channels":[
				{
					"sampler":0,
					"target":{
						"node":8,
						"path":"translation"
					}
				},
				{
					"sampler":1,
					"target":{
						"node":8,
						"path":"rotation"
					}
				},
				{
					"sampler":2,
					"target":{
						"node":8,
						"path":"scale"
					}
				}
			],
			"name":"CylinderAction",
			"samplers":[
				{
					"input":53,
					"interpolation":"LINEAR",
					"output":54
				},
				{
					"input":53,
					"interpolation":"LINEAR",
					"output":55
				},
				{
					"input":53,
					"interpolation":"LINEAR",
					"output":56
				}
			]
		}
	],
	"materials":[
		{
			"doubleSided":true,
			"name":"moon",
			"pbrMetallicRoughness":{
				"metallicFactor":0,
				"roughnessFactor":0.6363636255264282
			}
		},
		{
			"doubleSided":true,
			"name":"handle",
			"pbrMetallicRoughness":{
				"baseColorFactor":[
					0.0067749666050076485,
					0.0067749666050076485,
					0.0067749666050076485,
					1
				],
				"metallicFactor":1,
				"roughnessFactor":0.26153844594955444
			}
		},
		{
			"doubleSided":true,
			"emissiveFactor":[
				0.01649806834757328,
				1,
				0.6619027256965637
			],
			"extensions":{
				"KHR_materials_emissive_strength":{
					"emissiveStrength":3.1999998092651367
				}
			},
			"name":"green glow",
			"pbrMetallicRoughness":{
				"baseColorFactor":[
					0,
					0,
					0,
					1
				]
			}
		},
		{
			"doubleSided":true,
			"emissiveFactor":[
				0.01649806834757328,
				1,
				0.6619027256965637
			],
			"extensions":{
				"KHR_materials_emissive_strength":{
					"emissiveStrength":3.1999998092651367
				}
			},
			"name":"green glow.002",
			"pbrMetallicRoughness":{
				"baseColorFactor":[
					0,
					0,
					0,
					1
				]
			}
		},
		{
			"doubleSided":true,
			"name":"hilt",
			"pbrMetallicRoughness":{
				"baseColorFactor":[
					1,
					1,
					1,
					1
				],
				"metallicFactor":0,
				"roughnessFactor":0
			}
		},
		{
			"doubleSided":true,
			"name":"middle of sword",
			"pbrMetallicRoughness":{
				"baseColorFactor":[
					0.1816558986902237,
					0.1816558986902237,
					0.1816558986902237,
					1
				],
				"metallicFactor":0.6804123520851135,
				"roughnessFactor":0
			}
		},
		{
			"doubleSided":true,
			"emissiveFactor":[
				0.01649806834757328,
				1,
				0.6619027256965637
			],
			"extensions":{
				"KHR_materials_emissive_strength":{
					"emissiveStrength":3.1999998092651367
				}
			},
			"name":"green glow.003",
			"pbrMetallicRoughness":{
				"baseColorFactor":[
					0,
					0,
					0,
					1
				]
			}
		},
		{
			"doubleSided":true,
			"emissiveFactor":[
				0.016541585326194763,
				1,
				0.6632688045501709
			],
			"extensions":{
				"KHR_materials_emissive_strength":{
					"emissiveStrength":4
				}
			},
			"name":"Pulse Glow",
			"pbrMetallicRoughness":{
				"baseColorFactor":[
					0,
					0,
					0,
					1
				]
			}
		}
	],
	"meshes":[
		{
			"name":"Sphere.001",
			"primitives":[
				{
					"attributes":{
						"POSITION":0,
						"NORMAL":1,
						"TEXCOORD_0":2
					},
					"indices":3,
					"material":0
				}
			]
		},
		{
			"name":"Cube",
			"primitives":[
				{
					"attributes":{
						"POSITION":4,
						"NORMAL":5,
						"TEXCOORD_0":6
					},
					"indices":7,
					"material":1
				}
			]
		},
		{
			"name":"Cube.000",
			"primitives":[
				{
					"attributes":{
						"POSITION":8,
						"NORMAL":9,
						"TEXCOORD_0":10
					},
					"indices":11,
					"material":2
				}
			]
		},
		{
			"name":"Cube.008",
			"primitives":[
				{
					"attributes":{
						"POSITION":12,
						"NORMAL":13,
						"TEXCOORD_0":14
					},
					"indices":7,
					"material":1
				}
			]
		},
		{
			"name":"Cube.007",
			"primitives":[
				{
					"attributes":{
						"POSITION":15,
						"NORMAL":16,
						"TEXCOORD_0":17
					},
					"indices":18,
					"material":1
				}
			]
		},
		{
			"name":"Cube.009",
			"primitives":[
				{
					"attributes":{
						"POSITION":19,
						"NORMAL":20,
						"TEXCOORD_0":21
					},
					"indices":7,
					"material":1
				}
			]
		},
		{
			"name":"Cube.011",
			"primitives":[
				{
					"attributes":{
						"POSITION":22,
						"NORMAL":23,
						"TEXCOORD_0":24
					},
					"indices":25,
					"material":1
				}
			]
		},
		{
			"name":"Cube.012",
			"primitives":[
				{
					"attributes":{
						"POSITION":26,
						"NORMAL":27,
						"TEXCOORD_0":28
					},
					"indices":11,
					"material":3
				}
			]
		},
		{
			"name":"Cylinder",
			"primitives":[
				{
					"attributes":{
						"POSITION":29,
						"NORMAL":30,
						"TEXCOORD_0":31
					},
					"indices":32,
					"material":4
				},
				{
					"attributes":{
						"POSITION":33,
						"NORMAL":34,
						"TEXCOORD_0":35
					},
					"indices":36,
					"material":5
				}
			]
		},
		{
			"name":"Torus.021",
			"primitives":[
				{
					"attributes":{
						"POSITION":37,
						"NORMAL":38,
						"TEXCOORD_0":39
					},
					"indices":40,
					"material":3
				}
			]
		},
		{
			"name":"Torus.022",
			"primitives":[
				{
					"attributes":{
						"POSITION":41,
						"NORMAL":42,
						"TEXCOORD_0":43
					},
					"indices":40,
					"material":6
				}
			]
		},
		{
			"name":"Torus.020",
			"primitives":[
				{
					"attributes":{
						"POSITION":44,
						"NORMAL":45,
						"TEXCOORD_0":46
					},
					"indices":40,
					"material":1
				}
			]
		},
		{
			"name":"Curve.010",
			"primitives":[
				{
					"attributes":{
						"POSITION":47,
						"NORMAL":48
					},
					"indices":49,
					"material":7
				}
			]
		}
	],
	"accessors":[
		{
			"bufferView":0,
			"componentType":5126,
			"count":559,
			"max":[
				1.000000238418579,
				1,
				1.0000003576278687
			],
			"min":[
				-0.9999998211860657,
				-1,
				-1
			],
			"type":"VEC3"
		},
		{
			"bufferView":1,
			"componentType":5126,
			"count":559,
			"type":"VEC3"
		},
		{
			"bufferView":2,
			"componentType":5126,
			"count":559,
			"type":"VEC2"
		},
		{
			"bufferView":3,
			"componentType":5123,
			"count":2880,
			"type":"SCALAR"
		},
		{
			"bufferView":4,
			"componentType":5126,
			"count":120,
			"max":[
				1,
				1,
				1
			],
			"min":[
				-1,
				-2.8729331493377686,
				-1
			],
			"type":"VEC3"
		},
		{
			"bufferView":5,
			"componentType":5126,
			"count":120,
			"type":"VEC3"
		},
		{
			"bufferView":6,
			"componentType":5126,
			"count":120,
			"type":"VEC2"
		},
		{
			"bufferView":7,
			"componentType":5123,
			"count":228,
			"type":"SCALAR"
		},
		{
			"bufferView":8,
			"componentType":5126,
			"count":52,
			"max":[
				1,
				1,
				1
			],
			"min":[
				-1,
				-1,
				-3.4990713596343994
			],
			"type":"VEC3"
		},
		{
			"bufferView":9,
			"componentType":5126,
			"count":52,
			"type":"VEC3"
		},
		{
			"bufferView":10,
			"componentType":5126,
			"count":52,
			"type":"VEC2"
		},
		{
			"bufferView":11,
			"componentType":5123,
			"count":78,
			"type":"SCALAR"
		},
		{
			"bufferView":12,
			"componentType":5126,
			"count":120,
			"max":[
				1,
				1,
				1
			],
			"min":[
				-1,
				-2.8729331493377686,
				-1
			],
			"type":"VEC3"
		},
		{
			"bufferView":13,
			"componentType":5126,
			"count":120,
			"type":"VEC3"
		},
		{
			"bufferView":14,
			"componentType":5126,
			"count":120,
			"type":"VEC2"
		},
		{
			"bufferView":15,
			"componentType":5126,
			"count":74,
			"max":[
				1.8759100437164307,
				1,
				5.130219459533691
			],
			"min":[
				-1.8759127855300903,
				-1.0506150722503662,
				-1.466153860092163
			],
			"type":"VEC3"
		},
		{
			"bufferView":16,
			"componentType":5126,
			"count":74,
			"type":"VEC3"
		},
		{
			"bufferView":17,
			"componentType":5126,
			"count":74,
			"type":"VEC2"
		},
		{
			"bufferView":18,
			"componentType":5123,
			"count":324,
			"type":"SCALAR"
		},
		{
			"bufferView":19,
			"componentType":5126,
			"count":120,
			"max":[
				1,
				1,
				1
			],
			"min":[
				-1,
				-2.8729331493377686,
				-1
			],
			"type":"VEC3"
		},
		{
			"bufferView":20,
			"componentType":5126,
			"count":120,
			"type":"VEC3"
		},
		{
			"bufferView":21,
			"componentType":5126,
			"count":120,
			"type":"VEC2"
		},
		{
			"bufferView":22,
			"componentType":5126,
			"count":69,
			"max":[
				1,
				1,
				1
			],
			"min":[
				-1,
				-1,
				-1
			],
			"type":"VEC3"
		},
		{
			"bufferView":23,
			"componentType":5126,
			"count":69,
			"type":"VEC3"
		},
		{
			"bufferView":24,
			"componentType":5126,
			"count":69,
			"type":"VEC2"
		},
		{
			"bufferView":25,
			"componentType":5123,
			"count":228,
			"type":"SCALAR"
		},
		{
			"bufferView":26,
			"componentType":5126,
			"count":52,
			"max":[
				1,
				1,
				1
			],
			"min":[
				-1,
				-1,
				-3.4990713596343994
			],
			"type":"VEC3"
		},
		{
			"bufferView":27,
			"componentType":5126,
			"count":52,
			"type":"VEC3"
		},
		{
			"bufferView":28,
			"componentType":5126,
			"count":52,
			"type":"VEC2"
		},
		{
			"bufferView":29,
			"componentType":5126,
			"count":316,
			"max":[
				1.3192154169082642,
				1,
				1.1561756134033203
			],
			"min":[
				-1.3040926456451416,
				-1,
				-0.6413950324058533
			],
			"type":"VEC3"
		},
		{
			"bufferView":30,
			"componentType":5126,
			"count":316,
			"type":"VEC3"
		},
		{
			"bufferView":31,
			"componentType":5126,
			"count":316,
			"type":"VEC2"
		},
		{
			"bufferView":32,
			"componentType":5123,
			"count":468,
			"type":"SCALAR"
		},
		{
			"bufferView":33,
			"componentType":5126,
			"count":341,
			"max":[
				0.9946534037590027,
				1.0000001192092896,
				0.9946534037590027
			],
			"min":[
				-0.9946534037590027,
				-1,
				-0.3876839876174927
			],
			"type":"VEC3"
		},
		{
			"bufferView":34,
			"componentType":5126,
			"count":341,
			"type":"VEC3"
		},
		{
			"bufferView":35,
			"componentType":5126,
			"count":341,
			"type":"VEC2"
		},
		{
			"bufferView":36,
			"componentType":5123,
			"count":738,
			"type":"SCALAR"
		},
		{
			"bufferView":37,
			"componentType":5126,
			"count":637,
			"max":[
				1.25,
				0.25,
				1.25
			],
			"min":[
				-1.25,
				-0.25,
				-1.25
			],
			"type":"VEC3"
		},
		{
			"bufferView":38,
			"componentType":5126,
			"count":637,
			"type":"VEC3"
		},
		{
			"bufferView":39,
			"componentType":5126,
			"count":637,
			"type":"VEC2"
		},
		{
			"bufferView":40,
			"componentType":5123,
			"count":3456,
			"type":"SCALAR"
		},
		{
			"bufferView":41,
			"componentType":5126,
			"count":637,
			"max":[
				1.25,
				0.25,
				1.25
			],
			"min":[
				-1.25,
				-0.25,
				-1.25
			],
			"type":"VEC3"
		},
		{
			"bufferView":42,
			"componentType":5126,
			"count":637,
			"type":"VEC3"
		},
		{
			"bufferView":43,
			"componentType":5126,
			"count":637,
			"type":"VEC2"
		},
		{
			"bufferView":44,
			"componentType":5126,
			"count":637,
			"max":[
				1.25,
				0.25,
				1.25
			],
			"min":[
				-1.25,
				-0.25,
				-1.25
			],
			"type":"VEC3"
		},
		{
			"bufferView":45,
			"componentType":5126,
			"count":637,
			"type":"VEC3"
		},
		{
			"bufferView":46,
			"componentType":5126,
			"count":637,
			"type":"VEC2"
		},
		{
			"bufferView":47,
			"componentType":5126,
			"count":836,
			"max":[
				0.1411139965057373,
				0,
				0.14161747694015503
			],
			"min":[
				0.00012632334255613387,
				0,
				0.00034696096554398537
			],
			"type":"VEC3"
		},
		{
			"bufferView":48,
			"componentType":5126,
			"count":836,
			"type":"VEC3"
		},
		{
			"bufferView":49,
			"componentType":5123,
			"count":2505,
			"type":"SCALAR"
		},
		{
			"bufferView":50,
			"componentType":5126,
			"count":181,
			"max":[
				6
			],
			"min":[
				0
			],
			"type":"SCALAR"
		},
		{
			"bufferView":51,
			"componentType":5126,
			"count":181,
			"type":"VEC4"
		},
		{
			"bufferView":52,
			"componentType":5126,
			"count":181,
			"type":"VEC4"
		},
		{
			"bufferView":53,
			"componentType":5126,
			"count":1,
			"max":[
				3.7666666666666666
			],
			"min":[
				3.7666666666666666
			],
			"type":"SCALAR"
		},
		{
			"bufferView":54,
			"componentType":5126,
			"count":1,
			"type":"VEC3"
		},
		{
			"bufferView":55,
			"componentType":5126,
			"count":1,
			"type":"VEC4"
		},
		{
			"bufferView":56,
			"componentType":5126,
			"count":1,
			"type":"VEC3"
		}
	],
	"bufferViews":[
		{
			"buffer":0,
			"byteLength":6708,
			"byteOffset":0,
			"target":34962
		},
		{
			"buffer":0,
			"byteLength":6708,
			"byteOffset":6708,
			"target":34962
		},
		{
			"buffer":0,
			"byteLength":4472,
			"byteOffset":13416,
			"target":34962
		},
		{
			"buffer":0,
			"byteLength":5760,
			"byteOffset":17888,
			"target":34963
		},
		{
			"buffer":0,
			"byteLength":1440,
			"byteOffset":23648,
			"target":34962
		},
		{
			"buffer":0,
			"byteLength":1440,
			"byteOffset":25088,
			"target":34962
		},
		{
			"buffer":0,
			"byteLength":960,
			"byteOffset":26528,
			"target":34962
		},
		{
			"buffer":0,
			"byteLength":456,
			"byteOffset":27488,
			"target":34963
		},
		{
			"buffer":0,
			"byteLength":624,
			"byteOffset":27944,
			"target":34962
		},
		{
			"buffer":0,
			"byteLength":624,
			"byteOffset":28568,
			"target":34962
		},
		{
			"buffer":0,
			"byteLength":416,
			"byteOffset":29192,
			"target":34962
		},
		{
			"buffer":0,
			"byteLength":156,
			"byteOffset":29608,
			"target":34963
		},
		{
			"buffer":0,
			"byteLength":1440,
			"byteOffset":29764,
			"target":34962
		},
		{
			"buffer":0,
			"byteLength":1440,
			"byteOffset":31204,
			"target":34962
		},
		{
			"buffer":0,
			"byteLength":960,
			"byteOffset":32644,
			"target":34962
		},
		{
			"buffer":0,
			"byteLength":888,
			"byteOffset":33604,
			"target":34962
		},
		{
			"buffer":0,
			"byteLength":888,
			"byteOffset":34492,
			"target":34962
		},
		{
			"buffer":0,
			"byteLength":592,
			"byteOffset":35380,
			"target":34962
		},
		{
			"buffer":0,
			"byteLength":648,
			"byteOffset":35972,
			"target":34963
		},
		{
			"buffer":0,
			"byteLength":1440,
			"byteOffset":36620,
			"target":34962
		},
		{
			"buffer":0,
			"byteLength":1440,
			"byteOffset":38060,
			"target":34962
		},
		{
			"buffer":0,
			"byteLength":960,
			"byteOffset":39500,
			"target":34962
		},
		{
			"buffer":0,
			"byteLength":828,
			"byteOffset":40460,
			"target":34962
		},
		{
			"buffer":0,
			"byteLength":828,
			"byteOffset":41288,
			"target":34962
		},
		{
			"buffer":0,
			"byteLength":552,
			"byteOffset":42116,
			"target":34962
		},
		{
			"buffer":0,
			"byteLength":456,
			"byteOffset":42668,
			"target":34963
		},
		{
			"buffer":0,
			"byteLength":624,
			"byteOffset":43124,
			"target":34962
		},
		{
			"buffer":0,
			"byteLength":624,
			"byteOffset":43748,
			"target":34962
		},
		{
			"buffer":0,
			"byteLength":416,
			"byteOffset":44372,
			"target":34962
		},
		{
			"buffer":0,
			"byteLength":3792,
			"byteOffset":44788,
			"target":34962
		},
		{
			"buffer":0,
			"byteLength":3792,
			"byteOffset":48580,
			"target":34962
		},
		{
			"buffer":0,
			"byteLength":2528,
			"byteOffset":52372,
			"target":34962
		},
		{
			"buffer":0,
			"byteLength":936,
			"byteOffset":54900,
			"target":34963
		},
		{
			"buffer":0,
			"byteLength":4092,
			"byteOffset":55836,
			"target":34962
		},
		{
			"buffer":0,
			"byteLength":4092,
			"byteOffset":59928,
			"target":34962
		},
		{
			"buffer":0,
			"byteLength":2728,
			"byteOffset":64020,
			"target":34962
		},
		{
			"buffer":0,
			"byteLength":1476,
			"byteOffset":66748,
			"target":34963
		},
		{
			"buffer":0,
			"byteLength":7644,
			"byteOffset":68224,
			"target":34962
		},
		{
			"buffer":0,
			"byteLength":7644,
			"byteOffset":75868,
			"target":34962
		},
		{
			"buffer":0,
			"byteLength":5096,
			"byteOffset":83512,
			"target":34962
		},
		{
			"buffer":0,
			"byteLength":6912,
			"byteOffset":88608,
			"target":34963
		},
		{
			"buffer":0,
			"byteLength":7644,
			"byteOffset":95520,
			"target":34962
		},
		{
			"buffer":0,
			"byteLength":7644,
			"byteOffset":103164,
			"target":34962
		},
		{
			"buffer":0,
			"byteLength":5096,
			"byteOffset":110808,
			"target":34962
		},
		{
			"buffer":0,
			"byteLength":7644,
			"byteOffset":115904,
			"target":34962
		},
		{
			"buffer":0,
			"byteLength":7644,
			"byteOffset":123548,
			"target":34962
		},
		{
			"buffer":0,
			"byteLength":5096,
			"byteOffset":131192,
			"target":34962
		},
		{
			"buffer":0,
			"byteLength":10032,
			"byteOffset":136288,
			"target":34962
		},
		{
			"buffer":0,
			"byteLength":10032,
			"byteOffset":146320,
			"target":34962
		},
		{
			"buffer":0,
			"byteLength":5010,
			"byteOffset":156352,
			"target":34963
		},
		{
			"buffer":0,
			"byteLength":724,
			"byteOffset":161364
		},
		{
			"buffer":0,
			"byteLength":2896,
			"byteOffset":162088
		},
		{
			"buffer":0,
			"byteLength":2896,
			"byteOffset":164984
		},
		{
			"buffer":0,
			"byteLength":4,
			"byteOffset":167880
		},
		{
			"buffer":0,
			"byteLength":12,
			"byteOffset":167884
		},
		{
			"buffer":0,
			"byteLength":16,
			"byteOffset":167896
		},
		{
			"buffer":0,
			"byteLength":12,
			"byteOffset":167912
		}
	],
	"buffers":[
		{
			"byteLength":167924,
			"uri":"SafemoonAxe1-v2.bin"
		}
	]
}
