{
	"asset":{
		"generator":"Khronos glTF Blender I/O v4.2.60",
		"version":"2.0"
	},
	"scene":0,
	"scenes":[
		{
			"name":"Scene",
			"nodes":[
				0,
				1,
				2,
				3,
				4,
				5,
				6,
				7,
				8,
				9,
				10,
				11,
				12,
				13,
				14
			]
		}
	],
	"nodes":[
		{
			"mesh":0,
			"name":"Curve.001",
			"rotation":[
				0.7071068286895752,
				0,
				0,
				0.7071068286895752
			],
			"translation":[
				0.0003731548204086721,
				0.05269698426127434,
				-0.0015121065080165863
			]
		},
		{
			"mesh":1,
			"name":"Curve.002",
			"rotation":[
				0.7071068286895752,
				0,
				0,
				0.7071068286895752
			],
			"translation":[
				-0.03465424105525017,
				-0.010713073424994946,
				-0.0015121102333068848
			]
		},
		{
			"mesh":2,
			"name":"Curve.003",
			"rotation":[
				0.7071068286895752,
				0,
				0,
				0.7071068286895752
			],
			"translation":[
				0.032205622643232346,
				-0.011240857653319836,
				-0.0015121102333068848
			]
		},
		{
			"mesh":3,
			"name":"Curve.004",
			"rotation":[
				0.7071068286895752,
				0,
				0,
				0.7071068286895752
			],
			"translation":[
				-0.03272002562880516,
				0.0331224761903286,
				-0.0015121065080165863
			]
		},
		{
			"mesh":4,
			"name":"Curve.005",
			"rotation":[
				0.7071068286895752,
				0,
				0,
				0.7071068286895752
			],
			"translation":[
				0.03343498334288597,
				0.02961006388068199,
				-0.0015121083706617355
			]
		},
		{
			"mesh":5,
			"name":"Curve.006",
			"rotation":[
				0.7071068286895752,
				0,
				0,
				0.7071068286895752
			],
			"translation":[
				-0.017701519653201103,
				-0.04772336035966873,
				-0.0015121102333068848
			]
		},
		{
			"mesh":6,
			"name":"Curve.007",
			"rotation":[
				0.7071068286895752,
				0,
				0,
				0.7071068286895752
			],
			"translation":[
				0.01742645911872387,
				-0.046067558228969574,
				-0.0015121102333068848
			]
		},
		{
			"mesh":7,
			"name":"Curve.008",
			"rotation":[
				0.7071068286895752,
				0,
				0,
				0.7071068286895752
			],
			"translation":[
				0.0004806815995834768,
				-0.057874634861946106,
				-0.0015121102333068848
			]
		},
		{
			"mesh":8,
			"name":"Curve.009",
			"rotation":[
				0.7071068286895752,
				0,
				0,
				0.7071068286895752
			],
			"translation":[
				0.0004386901273392141,
				-0.06794856488704681,
				-0.0015121102333068848
			]
		},
		{
			"mesh":9,
			"name":"Curve.010",
			"rotation":[
				0.7071068286895752,
				0,
				0,
				0.7071068286895752
			],
			"translation":[
				0.02188984863460064,
				0.01079752016812563,
				-0.0015121083706617355
			]
		},
		{
			"mesh":10,
			"name":"Curve.011",
			"rotation":[
				0.7071068286895752,
				0,
				0,
				0.7071068286895752
			],
			"translation":[
				-0.021867765113711357,
				0.009534900076687336,
				-0.0015121083706617355
			]
		},
		{
			"mesh":11,
			"name":"Curve.012",
			"rotation":[
				0.7071068286895752,
				0,
				0,
				0.7071068286895752
			],
			"translation":[
				-0.0014397798804566264,
				0.07482407987117767,
				-0.0015121027827262878
			]
		},
		{
			"mesh":12,
			"name":"Curve.013",
			"rotation":[
				0.7071068286895752,
				0,
				0,
				0.7071068286895752
			],
			"translation":[
				0.0011012254981324077,
				0.0030696287285536528,
				0.0011497624218463898
			]
		},
		{
			"mesh":13,
			"name":"Curve.014",
			"rotation":[
				0.7071068286895752,
				0,
				0,
				0.7071068286895752
			],
			"translation":[
				0.00036166602512821555,
				0.002475668443366885,
				-0.0015121090691536665
			]
		},
		{
			"mesh":14,
			"name":"Curve.015",
			"rotation":[
				0.7071068286895752,
				0,
				0,
				0.7071068286895752
			],
			"translation":[
				-0.002151222201064229,
				0.02686620131134987,
				-0.0027445033192634583
			]
		}
	],
	"materials":[
		{
			"doubleSided":true,
			"name":"Gold shield",
			"pbrMetallicRoughness":{
				"baseColorFactor":[
					0.68668133020401,
					0.4396575391292572,
					0.2383977621793747,
					1
				],
				"metallicFactor":0,
				"roughnessFactor":0.5
			}
		},
		{
			"doubleSided":true,
			"name":"Gold.002",
			"pbrMetallicRoughness":{
				"baseColorFactor":[
					0.68668133020401,
					0.4396575391292572,
					0.2383977621793747,
					1
				],
				"metallicFactor":0,
				"roughnessFactor":0.5
			}
		},
		{
			"doubleSided":true,
			"name":"Gold.004",
			"pbrMetallicRoughness":{
				"baseColorFactor":[
					0.68668133020401,
					0.4396575391292572,
					0.2383977621793747,
					1
				],
				"metallicFactor":0,
				"roughnessFactor":0.5
			}
		},
		{
			"doubleSided":true,
			"name":"Gold",
			"pbrMetallicRoughness":{
				"baseColorFactor":[
					0.68668133020401,
					0.4396575391292572,
					0.2383977621793747,
					1
				],
				"metallicFactor":0,
				"roughnessFactor":0.5
			}
		},
		{
			"doubleSided":true,
			"name":"Gold.003",
			"pbrMetallicRoughness":{
				"baseColorFactor":[
					0.68668133020401,
					0.4396575391292572,
					0.2383977621793747,
					1
				],
				"metallicFactor":0,
				"roughnessFactor":0.5
			}
		},
		{
			"doubleSided":true,
			"name":"Gold.007",
			"pbrMetallicRoughness":{
				"baseColorFactor":[
					0.68668133020401,
					0.4396575391292572,
					0.2383977621793747,
					1
				],
				"metallicFactor":0,
				"roughnessFactor":0.5
			}
		},
		{
			"doubleSided":true,
			"name":"Gold.005",
			"pbrMetallicRoughness":{
				"baseColorFactor":[
					0.68668133020401,
					0.4396575391292572,
					0.2383977621793747,
					1
				],
				"metallicFactor":0,
				"roughnessFactor":0.5
			}
		},
		{
			"doubleSided":true,
			"name":"Gold.006",
			"pbrMetallicRoughness":{
				"baseColorFactor":[
					0.68668133020401,
					0.4396575391292572,
					0.2383977621793747,
					1
				],
				"metallicFactor":0,
				"roughnessFactor":0.5
			}
		},
		{
			"doubleSided":true,
			"name":"Gold.001",
			"pbrMetallicRoughness":{
				"baseColorFactor":[
					0.68668133020401,
					0.4396575391292572,
					0.2383977621793747,
					1
				],
				"metallicFactor":0,
				"roughnessFactor":0.5
			}
		},
		{
			"doubleSided":true,
			"name":"Gold.010",
			"pbrMetallicRoughness":{
				"baseColorFactor":[
					0.68668133020401,
					0.4396575391292572,
					0.2383977621793747,
					1
				],
				"metallicFactor":0,
				"roughnessFactor":0.5
			}
		},
		{
			"doubleSided":true,
			"name":"Gold.008",
			"pbrMetallicRoughness":{
				"baseColorFactor":[
					0.68668133020401,
					0.4396575391292572,
					0.2383977621793747,
					1
				],
				"metallicFactor":0,
				"roughnessFactor":0.5
			}
		},
		{
			"doubleSided":true,
			"name":"Gold.009",
			"pbrMetallicRoughness":{
				"baseColorFactor":[
					0.68668133020401,
					0.4396575391292572,
					0.2383977621793747,
					1
				],
				"metallicFactor":0,
				"roughnessFactor":0.5
			}
		},
		{
			"doubleSided":true,
			"name":"Red.001",
			"pbrMetallicRoughness":{
				"baseColorFactor":[
					0.5583376884460449,
					0.0015175672015175223,
					0.0036765197291970253,
					1
				],
				"metallicFactor":0,
				"roughnessFactor":0.5
			}
		},
		{
			"doubleSided":true,
			"name":"White",
			"pbrMetallicRoughness":{
				"baseColorFactor":[
					0.800000011920929,
					0.800000011920929,
					0.800000011920929,
					1
				],
				"metallicFactor":0,
				"roughnessFactor":0.5
			}
		},
		{
			"doubleSided":true,
			"name":"SVGMat.005",
			"pbrMetallicRoughness":{
				"baseColorFactor":[
					0,
					0,
					0,
					1
				],
				"metallicFactor":0.41721853613853455,
				"roughnessFactor":0.5
			}
		}
	],
	"meshes":[
		{
			"name":"Curve.016",
			"primitives":[
				{
					"attributes":{
						"POSITION":0,
						"NORMAL":1,
						"TEXCOORD_0":2
					},
					"indices":3,
					"material":0
				}
			]
		},
		{
			"name":"Curve.017",
			"primitives":[
				{
					"attributes":{
						"POSITION":4,
						"NORMAL":5,
						"TEXCOORD_0":6
					},
					"indices":7,
					"material":1
				}
			]
		},
		{
			"name":"Curve.018",
			"primitives":[
				{
					"attributes":{
						"POSITION":8,
						"NORMAL":9,
						"TEXCOORD_0":10
					},
					"indices":11,
					"material":2
				}
			]
		},
		{
			"name":"Curve.019",
			"primitives":[
				{
					"attributes":{
						"POSITION":12,
						"NORMAL":13,
						"TEXCOORD_0":14
					},
					"indices":15,
					"material":3
				}
			]
		},
		{
			"name":"Curve.020",
			"primitives":[
				{
					"attributes":{
						"POSITION":16,
						"NORMAL":17,
						"TEXCOORD_0":18
					},
					"indices":19,
					"material":4
				}
			]
		},
		{
			"name":"Curve.021",
			"primitives":[
				{
					"attributes":{
						"POSITION":20,
						"NORMAL":21,
						"TEXCOORD_0":22
					},
					"indices":23,
					"material":5
				}
			]
		},
		{
			"name":"Curve.022",
			"primitives":[
				{
					"attributes":{
						"POSITION":24,
						"NORMAL":25,
						"TEXCOORD_0":26
					},
					"indices":27,
					"material":6
				}
			]
		},
		{
			"name":"Curve.023",
			"primitives":[
				{
					"attributes":{
						"POSITION":28,
						"NORMAL":29,
						"TEXCOORD_0":30
					},
					"indices":31,
					"material":7
				}
			]
		},
		{
			"name":"Curve.024",
			"primitives":[
				{
					"attributes":{
						"POSITION":32,
						"NORMAL":33,
						"TEXCOORD_0":34
					},
					"indices":35,
					"material":8
				}
			]
		},
		{
			"name":"Curve.025",
			"primitives":[
				{
					"attributes":{
						"POSITION":36,
						"NORMAL":37,
						"TEXCOORD_0":38
					},
					"indices":39,
					"material":9
				}
			]
		},
		{
			"name":"Curve.026",
			"primitives":[
				{
					"attributes":{
						"POSITION":40,
						"NORMAL":41,
						"TEXCOORD_0":42
					},
					"indices":43,
					"material":10
				}
			]
		},
		{
			"name":"Curve.027",
			"primitives":[
				{
					"attributes":{
						"POSITION":44,
						"NORMAL":45,
						"TEXCOORD_0":46
					},
					"indices":47,
					"material":11
				}
			]
		},
		{
			"name":"Curve.028",
			"primitives":[
				{
					"attributes":{
						"POSITION":48,
						"NORMAL":49,
						"TEXCOORD_0":50
					},
					"indices":51,
					"material":12
				}
			]
		},
		{
			"name":"Curve.029",
			"primitives":[
				{
					"attributes":{
						"POSITION":52,
						"NORMAL":53,
						"TEXCOORD_0":54
					},
					"indices":55,
					"material":13
				}
			]
		},
		{
			"name":"Curve.030",
			"primitives":[
				{
					"attributes":{
						"POSITION":56,
						"NORMAL":57,
						"TEXCOORD_0":58
					},
					"indices":59,
					"material":14
				}
			]
		}
	],
	"accessors":[
		{
			"bufferView":0,
			"componentType":5126,
			"count":4442,
			"max":[
				0.03181236982345581,
				0.006389625370502472,
				0.014330814592540264
			],
			"min":[
				-0.032848894596099854,
				0,
				-0.019887525588274002
			],
			"type":"VEC3"
		},
		{
			"bufferView":1,
			"componentType":5126,
			"count":4442,
			"type":"VEC3"
		},
		{
			"bufferView":2,
			"componentType":5126,
			"count":4442,
			"type":"VEC2"
		},
		{
			"bufferView":3,
			"componentType":5123,
			"count":8916,
			"type":"SCALAR"
		},
		{
			"bufferView":4,
			"componentType":5126,
			"count":488,
			"max":[
				0.013339579105377197,
				0.006389625370502472,
				0.027140576392412186
			],
			"min":[
				-0.007792036980390549,
				0,
				-0.029579579830169678
			],
			"type":"VEC3"
		},
		{
			"bufferView":5,
			"componentType":5126,
			"count":488,
			"type":"VEC3"
		},
		{
			"bufferView":6,
			"componentType":5126,
			"count":488,
			"type":"VEC2"
		},
		{
			"bufferView":7,
			"componentType":5123,
			"count":996,
			"type":"SCALAR"
		},
		{
			"bufferView":8,
			"componentType":5126,
			"count":706,
			"max":[
				0.010104240849614143,
				0.006389625370502472,
				0.026619259268045425
			],
			"min":[
				-0.010670899413526058,
				0,
				-0.0301581472158432
			],
			"type":"VEC3"
		},
		{
			"bufferView":9,
			"componentType":5126,
			"count":706,
			"type":"VEC3"
		},
		{
			"bufferView":10,
			"componentType":5126,
			"count":706,
			"type":"VEC2"
		},
		{
			"bufferView":11,
			"componentType":5123,
			"count":1428,
			"type":"SCALAR"
		},
		{
			"bufferView":12,
			"componentType":5126,
			"count":624,
			"max":[
				0.012672558426856995,
				0.006389625370502472,
				0.015947317704558372
			],
			"min":[
				-0.00945974886417389,
				0,
				-0.017499253153800964
			],
			"type":"VEC3"
		},
		{
			"bufferView":13,
			"componentType":5126,
			"count":624,
			"type":"VEC3"
		},
		{
			"bufferView":14,
			"componentType":5126,
			"count":624,
			"type":"VEC2"
		},
		{
			"bufferView":15,
			"componentType":5123,
			"count":1284,
			"type":"SCALAR"
		},
		{
			"bufferView":16,
			"componentType":5126,
			"count":576,
			"max":[
				0.008707509376108646,
				0.006389625370502472,
				0.012421681545674801
			],
			"min":[
				-0.013126671314239502,
				0,
				-0.02099190652370453
			],
			"type":"VEC3"
		},
		{
			"bufferView":17,
			"componentType":5126,
			"count":576,
			"type":"VEC3"
		},
		{
			"bufferView":18,
			"componentType":5126,
			"count":576,
			"type":"VEC2"
		},
		{
			"bufferView":19,
			"componentType":5123,
			"count":1140,
			"type":"SCALAR"
		},
		{
			"bufferView":20,
			"componentType":5126,
			"count":638,
			"max":[
				0.011676297523081303,
				0.006389625370502472,
				0.012622127309441566
			],
			"min":[
				-0.012331172823905945,
				0,
				-0.012760583311319351
			],
			"type":"VEC3"
		},
		{
			"bufferView":21,
			"componentType":5126,
			"count":638,
			"type":"VEC3"
		},
		{
			"bufferView":22,
			"componentType":5126,
			"count":638,
			"type":"VEC2"
		},
		{
			"bufferView":23,
			"componentType":5123,
			"count":1284,
			"type":"SCALAR"
		},
		{
			"bufferView":24,
			"componentType":5126,
			"count":610,
			"max":[
				0.012455031275749207,
				0.006389625370502472,
				0.01430552639067173
			],
			"min":[
				-0.011408285237848759,
				0,
				-0.01119225099682808
			],
			"type":"VEC3"
		},
		{
			"bufferView":25,
			"componentType":5126,
			"count":610,
			"type":"VEC3"
		},
		{
			"bufferView":26,
			"componentType":5126,
			"count":610,
			"type":"VEC2"
		},
		{
			"bufferView":27,
			"componentType":5123,
			"count":1284,
			"type":"SCALAR"
		},
		{
			"bufferView":28,
			"componentType":5126,
			"count":602,
			"max":[
				0.010553613305091858,
				0.006389625370502472,
				0.0066198743879795074
			],
			"min":[
				-0.011561766266822815,
				0,
				-0.004339542239904404
			],
			"type":"VEC3"
		},
		{
			"bufferView":29,
			"componentType":5126,
			"count":602,
			"type":"VEC3"
		},
		{
			"bufferView":30,
			"componentType":5126,
			"count":602,
			"type":"VEC2"
		},
		{
			"bufferView":31,
			"componentType":5123,
			"count":1284,
			"type":"SCALAR"
		},
		{
			"bufferView":32,
			"componentType":5126,
			"count":430,
			"max":[
				0.0030629485845565796,
				0.006389625370502472,
				0.006155048962682486
			],
			"min":[
				-0.004061576910316944,
				0,
				-0.00530890841037035
			],
			"type":"VEC3"
		},
		{
			"bufferView":33,
			"componentType":5126,
			"count":430,
			"type":"VEC3"
		},
		{
			"bufferView":34,
			"componentType":5126,
			"count":430,
			"type":"VEC2"
		},
		{
			"bufferView":35,
			"componentType":5123,
			"count":852,
			"type":"SCALAR"
		},
		{
			"bufferView":36,
			"componentType":5126,
			"count":1380,
			"max":[
				0.026570795103907585,
				0.0035497930366545916,
				0.08221080154180527
			],
			"min":[
				-0.019187575206160545,
				0,
				-0.05627841129899025
			],
			"type":"VEC3"
		},
		{
			"bufferView":37,
			"componentType":5126,
			"count":1380,
			"type":"VEC3"
		},
		{
			"bufferView":38,
			"componentType":5126,
			"count":1380,
			"type":"VEC2"
		},
		{
			"bufferView":39,
			"componentType":5123,
			"count":2724,
			"type":"SCALAR"
		},
		{
			"bufferView":40,
			"componentType":5126,
			"count":1580,
			"max":[
				0.01893802173435688,
				0.0035497930366545916,
				0.08093690127134323
			],
			"min":[
				-0.026724325492978096,
				0,
				-0.05752696841955185
			],
			"type":"VEC3"
		},
		{
			"bufferView":41,
			"componentType":5126,
			"count":1580,
			"type":"VEC3"
		},
		{
			"bufferView":42,
			"componentType":5126,
			"count":1580,
			"type":"VEC2"
		},
		{
			"bufferView":43,
			"componentType":5123,
			"count":3192,
			"type":"SCALAR"
		},
		{
			"bufferView":44,
			"componentType":5126,
			"count":356,
			"max":[
				0.008345082402229309,
				0.0035497930366545916,
				0.005615919828414917
			],
			"min":[
				-0.005726799368858337,
				0,
				-0.0042176395654678345
			],
			"type":"VEC3"
		},
		{
			"bufferView":45,
			"componentType":5126,
			"count":356,
			"type":"VEC3"
		},
		{
			"bufferView":46,
			"componentType":5126,
			"count":356,
			"type":"VEC2"
		},
		{
			"bufferView":47,
			"componentType":5123,
			"count":708,
			"type":"SCALAR"
		},
		{
			"bufferView":48,
			"componentType":5126,
			"count":2908,
			"max":[
				0.029745489358901978,
				0.0018699917709454894,
				0.05657721310853958
			],
			"min":[
				-0.031894050538539886,
				-0.001014048932120204,
				-0.035134389996528625
			],
			"type":"VEC3"
		},
		{
			"bufferView":49,
			"componentType":5126,
			"count":2908,
			"type":"VEC3"
		},
		{
			"bufferView":50,
			"componentType":5126,
			"count":2908,
			"type":"VEC2"
		},
		{
			"bufferView":51,
			"componentType":5123,
			"count":6084,
			"type":"SCALAR"
		},
		{
			"bufferView":52,
			"componentType":5126,
			"count":1862,
			"max":[
				0.02428525686264038,
				0.002567847492173314,
				0.04170757904648781
			],
			"min":[
				-0.025317123159766197,
				0,
				-0.02668972685933113
			],
			"type":"VEC3"
		},
		{
			"bufferView":53,
			"componentType":5126,
			"count":1862,
			"type":"VEC3"
		},
		{
			"bufferView":54,
			"componentType":5126,
			"count":1862,
			"type":"VEC2"
		},
		{
			"bufferView":55,
			"componentType":5123,
			"count":3912,
			"type":"SCALAR"
		},
		{
			"bufferView":56,
			"componentType":5126,
			"count":1838,
			"max":[
				0.051814109086990356,
				0.0026705635245889425,
				0.10299364477396011
			],
			"min":[
				-0.04776880145072937,
				0,
				-0.05366130173206329
			],
			"type":"VEC3"
		},
		{
			"bufferView":57,
			"componentType":5126,
			"count":1838,
			"type":"VEC3"
		},
		{
			"bufferView":58,
			"componentType":5126,
			"count":1838,
			"type":"VEC2"
		},
		{
			"bufferView":59,
			"componentType":5123,
			"count":3720,
			"type":"SCALAR"
		}
	],
	"bufferViews":[
		{
			"buffer":0,
			"byteLength":53304,
			"byteOffset":0,
			"target":34962
		},
		{
			"buffer":0,
			"byteLength":53304,
			"byteOffset":53304,
			"target":34962
		},
		{
			"buffer":0,
			"byteLength":35536,
			"byteOffset":106608,
			"target":34962
		},
		{
			"buffer":0,
			"byteLength":17832,
			"byteOffset":142144,
			"target":34963
		},
		{
			"buffer":0,
			"byteLength":5856,
			"byteOffset":159976,
			"target":34962
		},
		{
			"buffer":0,
			"byteLength":5856,
			"byteOffset":165832,
			"target":34962
		},
		{
			"buffer":0,
			"byteLength":3904,
			"byteOffset":171688,
			"target":34962
		},
		{
			"buffer":0,
			"byteLength":1992,
			"byteOffset":175592,
			"target":34963
		},
		{
			"buffer":0,
			"byteLength":8472,
			"byteOffset":177584,
			"target":34962
		},
		{
			"buffer":0,
			"byteLength":8472,
			"byteOffset":186056,
			"target":34962
		},
		{
			"buffer":0,
			"byteLength":5648,
			"byteOffset":194528,
			"target":34962
		},
		{
			"buffer":0,
			"byteLength":2856,
			"byteOffset":200176,
			"target":34963
		},
		{
			"buffer":0,
			"byteLength":7488,
			"byteOffset":203032,
			"target":34962
		},
		{
			"buffer":0,
			"byteLength":7488,
			"byteOffset":210520,
			"target":34962
		},
		{
			"buffer":0,
			"byteLength":4992,
			"byteOffset":218008,
			"target":34962
		},
		{
			"buffer":0,
			"byteLength":2568,
			"byteOffset":223000,
			"target":34963
		},
		{
			"buffer":0,
			"byteLength":6912,
			"byteOffset":225568,
			"target":34962
		},
		{
			"buffer":0,
			"byteLength":6912,
			"byteOffset":232480,
			"target":34962
		},
		{
			"buffer":0,
			"byteLength":4608,
			"byteOffset":239392,
			"target":34962
		},
		{
			"buffer":0,
			"byteLength":2280,
			"byteOffset":244000,
			"target":34963
		},
		{
			"buffer":0,
			"byteLength":7656,
			"byteOffset":246280,
			"target":34962
		},
		{
			"buffer":0,
			"byteLength":7656,
			"byteOffset":253936,
			"target":34962
		},
		{
			"buffer":0,
			"byteLength":5104,
			"byteOffset":261592,
			"target":34962
		},
		{
			"buffer":0,
			"byteLength":2568,
			"byteOffset":266696,
			"target":34963
		},
		{
			"buffer":0,
			"byteLength":7320,
			"byteOffset":269264,
			"target":34962
		},
		{
			"buffer":0,
			"byteLength":7320,
			"byteOffset":276584,
			"target":34962
		},
		{
			"buffer":0,
			"byteLength":4880,
			"byteOffset":283904,
			"target":34962
		},
		{
			"buffer":0,
			"byteLength":2568,
			"byteOffset":288784,
			"target":34963
		},
		{
			"buffer":0,
			"byteLength":7224,
			"byteOffset":291352,
			"target":34962
		},
		{
			"buffer":0,
			"byteLength":7224,
			"byteOffset":298576,
			"target":34962
		},
		{
			"buffer":0,
			"byteLength":4816,
			"byteOffset":305800,
			"target":34962
		},
		{
			"buffer":0,
			"byteLength":2568,
			"byteOffset":310616,
			"target":34963
		},
		{
			"buffer":0,
			"byteLength":5160,
			"byteOffset":313184,
			"target":34962
		},
		{
			"buffer":0,
			"byteLength":5160,
			"byteOffset":318344,
			"target":34962
		},
		{
			"buffer":0,
			"byteLength":3440,
			"byteOffset":323504,
			"target":34962
		},
		{
			"buffer":0,
			"byteLength":1704,
			"byteOffset":326944,
			"target":34963
		},
		{
			"buffer":0,
			"byteLength":16560,
			"byteOffset":328648,
			"target":34962
		},
		{
			"buffer":0,
			"byteLength":16560,
			"byteOffset":345208,
			"target":34962
		},
		{
			"buffer":0,
			"byteLength":11040,
			"byteOffset":361768,
			"target":34962
		},
		{
			"buffer":0,
			"byteLength":5448,
			"byteOffset":372808,
			"target":34963
		},
		{
			"buffer":0,
			"byteLength":18960,
			"byteOffset":378256,
			"target":34962
		},
		{
			"buffer":0,
			"byteLength":18960,
			"byteOffset":397216,
			"target":34962
		},
		{
			"buffer":0,
			"byteLength":12640,
			"byteOffset":416176,
			"target":34962
		},
		{
			"buffer":0,
			"byteLength":6384,
			"byteOffset":428816,
			"target":34963
		},
		{
			"buffer":0,
			"byteLength":4272,
			"byteOffset":435200,
			"target":34962
		},
		{
			"buffer":0,
			"byteLength":4272,
			"byteOffset":439472,
			"target":34962
		},
		{
			"buffer":0,
			"byteLength":2848,
			"byteOffset":443744,
			"target":34962
		},
		{
			"buffer":0,
			"byteLength":1416,
			"byteOffset":446592,
			"target":34963
		},
		{
			"buffer":0,
			"byteLength":34896,
			"byteOffset":448008,
			"target":34962
		},
		{
			"buffer":0,
			"byteLength":34896,
			"byteOffset":482904,
			"target":34962
		},
		{
			"buffer":0,
			"byteLength":23264,
			"byteOffset":517800,
			"target":34962
		},
		{
			"buffer":0,
			"byteLength":12168,
			"byteOffset":541064,
			"target":34963
		},
		{
			"buffer":0,
			"byteLength":22344,
			"byteOffset":553232,
			"target":34962
		},
		{
			"buffer":0,
			"byteLength":22344,
			"byteOffset":575576,
			"target":34962
		},
		{
			"buffer":0,
			"byteLength":14896,
			"byteOffset":597920,
			"target":34962
		},
		{
			"buffer":0,
			"byteLength":7824,
			"byteOffset":612816,
			"target":34963
		},
		{
			"buffer":0,
			"byteLength":22056,
			"byteOffset":620640,
			"target":34962
		},
		{
			"buffer":0,
			"byteLength":22056,
			"byteOffset":642696,
			"target":34962
		},
		{
			"buffer":0,
			"byteLength":14704,
			"byteOffset":664752,
			"target":34962
		},
		{
			"buffer":0,
			"byteLength":7440,
			"byteOffset":679456,
			"target":34963
		}
	],
	"buffers":[
		{
			"byteLength":686896,
			"uri":"UWMadisonLogo.bin"
		}
	]
}
